# xmcd CD database file
#
# Track frame offsets:
#	150
#	10628
#	24196
#	38348
#	50752
#	63270
#	76910
#	88280
#	102963
#	117266
#	130211
#	141715
#	153625
#	167160
#	177908
#	191789
#	202678
#	214810
#	227268
#	240586
#	254069
#	265653
#	280867
#	295696
#	310510
#	327510
#	340385
#
# Disc length: 4721 seconds
#
# Revision: 1
# Processed by: cddbd v1.5.2PL0 Copyright (c) Steve Scherf et al.
# Submitted via: CDex 2.06
#
DISCID=7d126f1b
DTITLE=Vaughn Sarah - Best
DYEAR=1900
DGENRE=Jazz
TTITLE0=Lonely Girl
TTITLE1=Just Friends
TTITLE2=While You Are Gone
TTITLE3=The Man I Love
TTITLE4=What A Difference A Day Made
TTITLE5=You Go To My Head
TTITLE6=Lover Man album interlude A Night in Tunisia
TTITLE7=It's Magic
TTITLE8=TEDDY WILSON - Penthouse Serenade (When We're Alone)
TTITLE9=September Song
TTITLE10=I'm Scared
TTITLE11=Signing Off
TTITLE12=Love Me Or Leave Me
TTITLE13=I'm Gonna Sit Right Down And Write Myself
TTITLE14=Time After Time
TTITLE15=No Smoke Blues
TTITLE16=I'd Rather Have A Memory Than A Dream
TTITLE17=I Can Make You Love Me
TTITLE18=I've Got A Crush On You
TTITLE19=It Might As Well Be Spring
TTITLE20=As You Desire Me
TTITLE21=That Lucky Old Sun (Just Rolls Around Heaven All Day)
TTITLE22=Black Coffe
TTITLE23=You Taught Me To Love Again
TTITLE24=Don't Blame Me
TTITLE25=Because Of You
TTITLE26=September Song
EXTD=
EXTT0=
EXTT1=
EXTT2=
EXTT3=
EXTT4=
EXTT5=
EXTT6=
EXTT7=
EXTT8=
EXTT9=
EXTT10=
EXTT11=
EXTT12=
EXTT13=
EXTT14=
EXTT15=
EXTT16=
EXTT17=
EXTT18=
EXTT19=
EXTT20=
EXTT21=
EXTT22=
EXTT23=
EXTT24=
EXTT25=
EXTT26=
PLAYORDER=
